<?xml version="1.0" encoding="UTF-8" standalone="no"?>
<!-- Created with Inkscape (http://www.inkscape.org/) -->

<svg
   width="250mm"
   height="250mm"
   viewBox="0 0 250 250"
   version="1.1"
   id="svg1"
   xml:space="preserve"
   sodipodi:docname="grammatica.svg"
   inkscape:version="1.4.3 (0d15f75, 2025-12-25)"
   xmlns:inkscape="http://www.inkscape.org/namespaces/inkscape"
   xmlns:sodipodi="http://sodipodi.sourceforge.net/DTD/sodipodi-0.dtd"
   xmlns:xlink="http://www.w3.org/1999/xlink"
   xmlns="http://www.w3.org/2000/svg"
   xmlns:svg="http://www.w3.org/2000/svg"><sodipodi:namedview
     id="namedview1"
     pagecolor="#ffffff"
     bordercolor="#000000"
     borderopacity="0.25"
     inkscape:showpageshadow="2"
     inkscape:pageopacity="0.0"
     inkscape:pagecheckerboard="0"
     inkscape:deskcolor="#d1d1d1"
     inkscape:document-units="mm"
     inkscape:zoom="0.4256093"
     inkscape:cx="357.13505"
     inkscape:cy="539.22694"
     inkscape:window-width="1440"
     inkscape:window-height="752"
     inkscape:window-x="0"
     inkscape:window-y="30"
     inkscape:window-maximized="1"
     inkscape:current-layer="layer1" /><defs
     id="defs1"><linearGradient
       id="linearGradient32"
       inkscape:collect="always"><stop
         style="stop-color:#3a3a3a;stop-opacity:1;"
         offset="0"
         id="stop32" /><stop
         style="stop-color:#1a1a1a;stop-opacity:1;"
         offset="1"
         id="stop33" /></linearGradient><radialGradient
       inkscape:collect="always"
       xlink:href="#linearGradient32"
       id="radialGradient33"
       cx="125.38224"
       cy="125.28975"
       fx="125.38224"
       fy="125.28975"
       r="110"
       gradientUnits="userSpaceOnUse"
       gradientTransform="matrix(1.0734686,0,0,1.0734686,-9.2116636,-9.2048683)" /></defs><g
     inkscape:label="Layer 1"
     inkscape:groupmode="layer"
     id="layer1"><rect
       style="fill:url(#radialGradient33);stroke-width:0.284022"
       id="rect12"
       width="236.1631"
       height="236.1631"
       x="7.3006873"
       y="7.2081981"
       ry="50.063938" /><path
       style="fill:#ffffff;fill-opacity:1;stroke-width:1.03716"
       d="m 42.967196,216.94955 c -0.350828,-0.65555 0.007,-1.48408 0.83147,-1.92533 0.299463,-0.16026 0.989078,-1.18187 1.532477,-2.27022 1.122523,-2.24828 2.960245,-5.54195 5.54432,-9.93691 0.97615,-1.66023 2.000427,-3.4171 2.27617,-3.90415 1.854697,-3.276 2.776386,-4.46556 3.459993,-4.46556 0.99737,0 2.408573,-0.95639 3.073097,-2.08268 0.610556,-1.03482 0.773527,-3.09306 0.283693,-3.5829 -0.199746,-0.19975 0.39606,-1.32201 1.959477,-3.6909 2.558352,-3.87641 11.691309,-16.98159 12.696388,-18.21846 l 0.665787,-0.81933 1.415629,0.50905 c 1.380711,0.49651 1.425211,0.49639 1.804117,-0.005 0.213666,-0.28213 0.392414,-0.64857 0.397214,-0.81431 0.0098,-0.33851 -1.497149,-1.0422 -3.136009,-1.4644 -1.313819,-0.33845 -1.733892,-0.0204 -3.503668,2.65193 -1.061839,1.60341 -1.189686,1.70833 -1.529388,1.255 -1.694718,-2.26159 -2.414992,-4.65623 -1.823586,-6.06277 0.71973,-1.71174 3.691506,-1.83642 8.032616,-0.337 1.309213,0.45218 2.48366,0.85444 2.609884,0.89387 0.126226,0.0395 1.021094,-2.33628 1.988599,-5.27939 0.967505,-2.94313 1.832662,-5.53636 1.922571,-5.76276 0.110043,-0.27709 0.312145,-0.0379 0.618358,0.73187 0.250187,0.62893 0.545385,1.23394 0.655993,1.34451 0.110608,0.11055 1.606208,-2.68853 3.323553,-6.2202 6.951197,-14.29493 8.639061,-17.7176 9.158285,-18.5714 l 0.543353,-0.8935 1.578871,2.06139 c 1.41919,1.85286 2.07143,2.31319 2.07143,1.46196 0,-0.57928 3.39648,-7.02792 7.48786,-14.21668 4.6602,-8.18818 9.99958,-16.12858 14.8731,-22.118405 1.30844,-1.60814 5.16069,-6.226696 5.35556,-6.420912 0.0758,-0.07548 0.55658,-0.631156 1.06858,-1.234875 2.36014,-2.782929 8.10886,-8.807912 14.27686,-14.962929 6.04082,-6.028118 9.94724,-9.549581 14.5655,-13.130139 3.73233,-2.893705 5.64968,-4.35689 6.87767,-5.248535 0.72752,-0.52825 3.5106,-2.565793 6.18462,-4.52787 13.88881,-10.191009 28.51833,-19.184837 32.75465,-20.136676 0.66876,-0.150262 1.31521,-0.211856 1.43651,-0.136874 0.31515,0.19477 0.27252,4.355957 -0.0699,6.817452 -0.27489,1.976349 -1.6402,7.719352 -2.5466,10.711932 -1.52371,5.030693 -4.76287,11.921143 -8.28375,17.621454 -2.27454,3.682474 -7.6397,11.090886 -10.00929,13.821161 -3.24014,3.733346 -8.52013,8.823632 -11.6391,11.220922 -1.79818,1.382108 -5.41018,3.932471 -8.0267,5.667485 -2.61649,1.735003 -4.7568,3.239855 -4.75624,3.344132 8.6e-4,0.188093 0.48916,0.39743 4.32104,1.853027 1.09424,0.41569 1.98952,0.85072 1.98952,0.96676 0,0.36975 -5.50758,5.32944 -8.91854,8.03134 -1.81114,1.43464 -3.66346,2.90988 -4.11624,3.27831 -3.65579,2.9747 -11.98547,8.41731 -16.52972,10.8005 -1.39395,0.73104 -2.53622,1.40394 -2.53836,1.49529 -0.007,0.25443 3.36178,0.51579 6.67359,0.51797 2.12021,8.7e-4 2.94264,0.0926 2.86752,0.318 -0.11301,0.33898 -7.65078,4.92985 -15.0333,9.15595 -2.49032,1.42558 -4.89832,2.89858 -5.35113,3.27333 l -0.82323,0.68137 1.0141,0.0108 c 0.55777,0.006 2.57512,-0.12354 4.48298,-0.28657 1.90787,-0.16305 3.53416,-0.23116 3.61395,-0.15138 0.0798,0.0798 -3.38833,1.8924 -7.70694,4.02801 -4.31858,2.13562 -7.79216,3.97973 -7.71905,4.09803 0.073,0.11831 0.90646,0.29929 1.85187,0.4022 0.94541,0.10283 2.15112,0.27828 2.67938,0.38973 l 0.96045,0.20263 -4.61446,3.07285 c -2.53794,1.69009 -4.71069,3.07285 -4.82836,3.07285 -0.25207,0 -1.12222,0.92107 -1.12222,1.18788 0,0.10134 0.17016,0.1842 0.37812,0.1842 0.20795,0 0.85593,0.19966 1.43993,0.44369 l 1.06182,0.44364 -1.12896,0.99703 c -4.1701,3.68274 -15.591945,8.6474 -23.223468,10.09439 -1.471273,0.27896 -2.675276,0.58177 -2.675559,0.6729 -2.86e-4,0.0911 0.668483,0.74323 1.486152,1.4491 1.749047,1.50992 4.325287,4.78553 4.988935,6.34328 1.251219,2.93695 0.986157,4.52725 -0.872911,5.23722 -1.430165,0.54618 -3.204262,0.41283 -6.496654,-0.48833 -1.170858,-0.32048 -2.172656,-0.53218 -2.226215,-0.47046 -0.20832,0.2401 -4.855317,9.2231 -8.125113,15.70647 l -3.435995,6.81289 -2.744163,0.90249 c -6.504242,2.13908 -10.835827,4.6917 -15.504304,9.13671 -0.830235,0.7905 -1.637671,1.43881 -1.794301,1.4407 -0.156631,0.002 -0.711138,-0.35251 -1.232241,-0.78756 l -0.947458,-0.79097 1.656817,-2.02179 c 2.845916,-3.47285 8.464565,-6.99409 13.747643,-8.61573 1.335038,-0.40978 2.612575,-0.83259 2.838968,-0.93954 0.226393,-0.10691 3.437067,-6.24036 7.134831,-13.62981 6.268405,-12.52649 7.709036,-15.20154 8.182576,-15.19388 0.102914,0.002 0.859425,0.59818 1.681125,1.3256 l 1.493999,1.32258 -0.733888,1.2523 c -0.844203,1.44051 -0.778763,1.55744 1.254291,2.241 1.668699,0.56106 2.509813,0.55844 3.07784,-0.01 0.580299,-0.58031 0.368235,-1.44456 -0.758183,-3.08986 -0.925126,-1.35132 -3.931764,-4.41052 -5.387025,-5.48121 l -0.886774,-0.65244 -0.835029,0.78965 c -0.556047,0.52582 -3.215883,5.56993 -7.961184,15.09759 l -7.126155,14.30793 -2.707932,0.85842 c -5.951551,1.88667 -11.19976,5.35872 -16.941122,11.20771 -3.218314,3.27863 -3.361603,3.47357 -3.361603,4.5732 0,0.63174 -0.148185,1.2968 -0.329301,1.47792 -0.530469,0.53046 -1.809251,0.3993 -2.140446,-0.21954 z m 45.278718,-56.73711 c 0,-0.11402 0.463079,-0.704 1.029063,-1.31107 0.565984,-0.60706 2.078704,-2.2717 3.3616,-3.69919 1.282899,-1.42749 2.899128,-3.21465 3.591623,-3.97146 0.692496,-0.7568 1.803874,-1.9924 2.469735,-2.74576 0.665862,-0.75336 1.777255,-1.98822 2.469755,-2.74416 0.69249,-0.75594 1.80388,-1.99186 2.46975,-2.74651 0.66586,-0.75464 1.2724,-1.43382 1.34787,-1.5093 0.13923,-0.13922 4.09019,-4.54215 5.66,-6.30749 2.49405,-2.80466 9.15783,-10.22022 10.36982,-11.53968 3.12052,-3.39726 9.52266,-10.51436 16.66673,-18.52794 1.60729,-1.80293 3.15313,-3.52503 3.43522,-3.82689 0.28205,-0.30185 1.48685,-1.66023 2.67729,-3.018586 1.19046,-1.358353 2.86726,-3.210668 3.72623,-4.116228 0.85897,-0.905592 2.09306,-2.263953 2.74241,-3.018597 1.30689,-1.518779 4.79769,-5.402141 7.149,-7.952945 0.83735,-0.908393 3.55083,-3.936144 6.02994,-6.728334 2.47912,-2.792189 4.57248,-5.13845 4.65193,-5.213915 0.0793,-0.07547 1.18916,-1.310338 2.46605,-2.744164 1.2769,-1.433826 3.06747,-3.415113 3.97904,-4.40286 0.91158,-0.987748 2.52183,-2.77597 3.57832,-3.97383 1.05651,-1.197858 2.66184,-2.988541 3.56741,-3.979292 0.9056,-0.990752 3.74379,-4.142026 6.30715,-7.00283 2.56334,-2.860805 5.06291,-5.63367 5.55455,-6.161921 1.79658,-1.930343 0.85321,-1.662543 -1.6029,0.455018 -0.84761,0.73078 -2.51471,2.129296 -3.70463,3.107816 -1.18993,0.97852 -2.22525,1.849567 -2.30072,1.93566 -0.0754,0.0861 -1.49556,1.306549 -3.15578,2.712126 -1.66023,1.405575 -3.14339,2.695559 -3.29593,2.866628 -0.15253,0.17107 -1.44915,1.357374 -2.88137,2.636232 -1.43222,1.278858 -3.46844,3.142375 -4.52494,4.141151 -1.0565,0.998775 -3.34102,3.157027 -5.07671,4.796117 -4.28078,4.04255 -15.60945,15.46902 -20.66584,20.844266 -7.25727,7.714906 -8.11695,8.645062 -12.95016,14.012018 -0.15093,0.1676 -1.02497,1.15853 -1.94234,2.2021 -0.91735,1.04353 -2.64511,3.00874 -3.8395,4.36711 -2.52203,2.86831 -2.50953,2.8538 -6.05704,7.01493 -4.87286,5.71569 -7.09938,8.41232 -11.34932,13.74557 -8.57311,10.7584 -11.176303,14.24662 -15.840021,21.22523 -3.699225,5.53534 -5.158716,7.90026 -6.052584,9.80738 -0.69236,1.47722 -0.714338,1.58089 -0.335117,1.58089 0.15093,0 0.274416,-0.0933 0.274416,-0.20729 z"
       id="path1" /></g></svg>
